<?xml version="1.0" standalone="no"?>
<!DOCTYPE svg PUBLIC "-//W3C//DTD SVG 20010904//EN"
 "http://www.w3.org/TR/2001/REC-SVG-20010904/DTD/svg10.dtd">
<svg version="1.0" xmlns="http://www.w3.org/2000/svg"
 width="41" height="41" viewBox="0 0 500.000000 500.000000"
 preserveAspectRatio="xMidYMid meet">

<g transform="translate(0.000000,500.000000) scale(0.100000,-0.100000)"
fill="#e6d50e" stroke="none">
<path d="M1812 4183 c-12 -48 -22 -91 -22 -94 0 -4 27 -16 59 -28 73 -26 161
-85 220 -145 l44 -45 -37 -43 c-70 -82 -126 -223 -126 -320 0 -27 -4 -48 -8
-48 -5 0 -67 22 -138 49 -363 137 -665 200 -954 201 -230 0 -412 -40 -567
-126 -255 -141 -342 -410 -220 -678 69 -150 208 -291 375 -382 l54 -29 4 -60
c18 -262 263 -460 594 -481 173 -11 359 33 512 121 43 25 81 45 85 45 5 0 9
-78 9 -173 4 -383 108 -709 306 -953 94 -117 241 -216 363 -245 64 -14 196
-14 260 0 122 29 269 128 363 244 198 245 302 572 306 954 0 95 4 173 9 173 4
0 42 -20 85 -45 153 -88 339 -132 512 -121 330 21 576 220 594 479 l4 62 54
29 c167 91 306 232 375 382 38 84 53 150 53 241 0 234 -143 404 -424 502 -122
43 -245 61 -416 61 -289 -1 -591 -64 -954 -201 -71 -27 -133 -49 -138 -49 -4
0 -8 21 -8 48 0 97 -56 238 -126 320 l-37 43 44 45 c59 60 147 119 220 145 32
12 59 24 59 28 0 3 -10 46 -22 94 l-23 88 -35 -6 c-98 -19 -241 -107 -343
-213 l-68 -71 -42 15 c-29 10 -82 15 -172 15 -90 0 -143 -5 -172 -15 l-42 -15
-68 71 c-102 106 -245 194 -343 213 l-35 6 -23 -88z m-674 -724 c148 -25 286
-60 452 -116 204 -68 202 -67 74 -87 -510 -82 -869 -249 -1047 -485 l-44 -59
-59 32 c-78 41 -191 155 -231 231 -86 166 -56 302 87 394 75 48 225 98 332
110 110 12 296 4 436 -20z m3133 20 c190 -19 372 -98 438 -189 87 -121 47
-296 -104 -445 -38 -38 -97 -84 -129 -101 l-59 -32 -44 59 c-178 236 -537 403
-1047 485 -128 20 -130 19 74 87 220 74 428 121 599 137 128 11 159 11 272 -1z
m-2230 -442 c-5 -13 -33 -55 -63 -95 -61 -81 -141 -236 -184 -357 -26 -72 -37
-88 -109 -160 -151 -152 -324 -234 -510 -243 -206 -9 -367 64 -431 193 -41 86
-27 150 59 263 163 214 570 369 1092 416 77 7 143 11 147 9 4 -2 3 -14 -1 -26z
m1324 -18 c392 -69 690 -208 822 -381 86 -113 100 -177 59 -263 -64 -129 -225
-202 -431 -193 -186 9 -359 91 -510 243 -72 72 -83 88 -109 160 -40 113 -119
268 -174 343 -54 72 -83 122 -77 132 6 10 286 -18 420 -41z m-630 -175 c110
-19 133 -32 179 -103 57 -85 51 -99 -58 -134 -234 -74 -488 -74 -722 0 -78 25
-89 32 -92 54 -4 31 59 130 97 152 25 15 157 41 256 51 67 7 245 -4 340 -20z
m-779 -948 c50 -24 168 -62 274 -88 37 -9 124 -13 265 -13 141 0 228 4 265 13
106 26 224 64 274 88 27 13 54 24 59 24 18 0 -24 -303 -49 -352 -35 -69 -328
-148 -549 -148 -221 0 -514 79 -549 148 -25 49 -67 352 -49 352 5 0 32 -11 59
-24z"/>
</g>
</svg>
